# xmcd
#
# Track frame offsets: 
#        150
#        19966
#        38726
#        55554
#        68939
#        102061
#        121043
#        136070
#        156866
#        177996
#        201024
#        231674
#        247256
#        257744
#
# Disc length: 3629 seconds
#
# Revision: 2
# Processed by: cddbd v1.5.2PL0 Copyright (c) Steve Scherf et al.
# Submitted via: ExactAudioCopy v1.0b3
#
DISCID=bf0e2b0e
DTITLE=Big Al and the Heavyweights - Hey Hey Mardi Gras
DYEAR=2000
DGENRE=Blues
TTITLE0=Bound By Love
TTITLE1=Wrestlin
TTITLE2=Hey Hey Mardi Gras
TTITLE3=Where's My Baby
TTITLE4=Make It Rain
TTITLE5=Cheatin Blues
TTITLE6=Cajun Roux
TTITLE7=My Heart Crys Out Your Name
TTITLE8=Why Can't We Be Alone
TTITLE9=Shirley Mae
TTITLE10=Sad Sad Day
TTITLE11=What Makes You Think
TTITLE12=Eat More Crawfish
TTITLE13=One More Mile
EXTD=
EXTT0=
EXTT1=
EXTT2=
EXTT3=
EXTT4=
EXTT5=
EXTT6=
EXTT7=
EXTT8=
EXTT9=
EXTT10=
EXTT11=
EXTT12=
EXTT13=
PLAYORDER=
